<mxfile host="app.diagrams.net" modified="2023-05-24T12:19:59.295Z" agent="Mozilla/5.0 (Windows NT 10.0; Win64; x64) AppleWebKit/537.36 (KHTML, like Gecko) Chrome/113.0.0.0 Safari/537.36" etag="pBVD1_zAcuI_J_Dqh7RS" version="21.3.2" type="github">
  <diagram name="Page-1" id="HDaOVPFFeGEJgY8TLbBw">
    <mxGraphModel dx="2868" dy="1592" grid="1" gridSize="10" guides="1" tooltips="1" connect="1" arrows="1" fold="1" page="1" pageScale="1" pageWidth="827" pageHeight="1169" math="0" shadow="0">
      <root>
        <mxCell id="0" />
        <mxCell id="1" parent="0" />
        <mxCell id="mwm1boXhuY1Ww02Y-CO6-60" style="edgeStyle=none;rounded=0;orthogonalLoop=1;jettySize=auto;html=1;exitX=0.5;exitY=1;exitDx=0;exitDy=0;entryX=1;entryY=0;entryDx=0;entryDy=0;endArrow=none;endFill=0;" edge="1" parent="1" source="mwm1boXhuY1Ww02Y-CO6-3" target="mwm1boXhuY1Ww02Y-CO6-4">
          <mxGeometry relative="1" as="geometry" />
        </mxCell>
        <mxCell id="mwm1boXhuY1Ww02Y-CO6-61" style="edgeStyle=none;rounded=0;orthogonalLoop=1;jettySize=auto;html=1;exitX=0.5;exitY=1;exitDx=0;exitDy=0;entryX=0;entryY=0.5;entryDx=0;entryDy=0;strokeColor=default;endArrow=none;endFill=0;" edge="1" parent="1" source="mwm1boXhuY1Ww02Y-CO6-3" target="mwm1boXhuY1Ww02Y-CO6-19">
          <mxGeometry relative="1" as="geometry" />
        </mxCell>
        <mxCell id="mwm1boXhuY1Ww02Y-CO6-65" style="edgeStyle=none;rounded=0;orthogonalLoop=1;jettySize=auto;html=1;exitX=0.5;exitY=0;exitDx=0;exitDy=0;entryX=0.5;entryY=1;entryDx=0;entryDy=0;endArrow=none;endFill=0;" edge="1" parent="1" source="mwm1boXhuY1Ww02Y-CO6-3" target="mwm1boXhuY1Ww02Y-CO6-12">
          <mxGeometry relative="1" as="geometry" />
        </mxCell>
        <mxCell id="mwm1boXhuY1Ww02Y-CO6-3" value="" style="image;html=1;image=img/lib/clip_art/networking/Router_128x128.png" vertex="1" parent="1">
          <mxGeometry x="750" y="380" width="80" height="80" as="geometry" />
        </mxCell>
        <mxCell id="mwm1boXhuY1Ww02Y-CO6-39" style="edgeStyle=none;rounded=0;orthogonalLoop=1;jettySize=auto;html=1;exitX=0;exitY=0.5;exitDx=0;exitDy=0;entryX=1.054;entryY=0.525;entryDx=0;entryDy=0;entryPerimeter=0;endArrow=none;endFill=0;" edge="1" parent="1" source="mwm1boXhuY1Ww02Y-CO6-4" target="mwm1boXhuY1Ww02Y-CO6-5">
          <mxGeometry relative="1" as="geometry" />
        </mxCell>
        <mxCell id="mwm1boXhuY1Ww02Y-CO6-40" style="edgeStyle=none;rounded=0;orthogonalLoop=1;jettySize=auto;html=1;exitX=0;exitY=0.5;exitDx=0;exitDy=0;endArrow=none;endFill=0;" edge="1" parent="1" source="mwm1boXhuY1Ww02Y-CO6-4">
          <mxGeometry relative="1" as="geometry">
            <mxPoint x="500" y="617" as="targetPoint" />
          </mxGeometry>
        </mxCell>
        <mxCell id="mwm1boXhuY1Ww02Y-CO6-41" style="edgeStyle=none;rounded=0;orthogonalLoop=1;jettySize=auto;html=1;exitX=0;exitY=0.5;exitDx=0;exitDy=0;endArrow=none;endFill=0;" edge="1" parent="1" source="mwm1boXhuY1Ww02Y-CO6-4">
          <mxGeometry relative="1" as="geometry">
            <mxPoint x="500" y="690" as="targetPoint" />
          </mxGeometry>
        </mxCell>
        <mxCell id="mwm1boXhuY1Ww02Y-CO6-46" style="edgeStyle=none;rounded=0;orthogonalLoop=1;jettySize=auto;html=1;exitX=0.5;exitY=1;exitDx=0;exitDy=0;entryX=0.457;entryY=-0.022;entryDx=0;entryDy=0;entryPerimeter=0;endArrow=none;endFill=0;" edge="1" parent="1" source="mwm1boXhuY1Ww02Y-CO6-4" target="mwm1boXhuY1Ww02Y-CO6-22">
          <mxGeometry relative="1" as="geometry" />
        </mxCell>
        <mxCell id="mwm1boXhuY1Ww02Y-CO6-47" style="edgeStyle=none;rounded=0;orthogonalLoop=1;jettySize=auto;html=1;entryX=0.465;entryY=-0.052;entryDx=0;entryDy=0;entryPerimeter=0;endArrow=none;endFill=0;" edge="1" parent="1" source="mwm1boXhuY1Ww02Y-CO6-4" target="mwm1boXhuY1Ww02Y-CO6-20">
          <mxGeometry relative="1" as="geometry" />
        </mxCell>
        <mxCell id="mwm1boXhuY1Ww02Y-CO6-48" style="edgeStyle=none;rounded=0;orthogonalLoop=1;jettySize=auto;html=1;entryX=0.474;entryY=-0.052;entryDx=0;entryDy=0;entryPerimeter=0;exitX=0.5;exitY=1;exitDx=0;exitDy=0;endArrow=none;endFill=0;" edge="1" parent="1" source="mwm1boXhuY1Ww02Y-CO6-4" target="mwm1boXhuY1Ww02Y-CO6-21">
          <mxGeometry relative="1" as="geometry" />
        </mxCell>
        <mxCell id="mwm1boXhuY1Ww02Y-CO6-62" style="edgeStyle=none;rounded=0;orthogonalLoop=1;jettySize=auto;html=1;exitX=1;exitY=0;exitDx=0;exitDy=0;entryX=0.5;entryY=1;entryDx=0;entryDy=0;endArrow=none;endFill=0;" edge="1" parent="1" source="mwm1boXhuY1Ww02Y-CO6-4" target="mwm1boXhuY1Ww02Y-CO6-15">
          <mxGeometry relative="1" as="geometry" />
        </mxCell>
        <mxCell id="mwm1boXhuY1Ww02Y-CO6-4" value="" style="image;html=1;image=img/lib/clip_art/networking/Switch_128x128.png" vertex="1" parent="1">
          <mxGeometry x="620" y="574.7" width="80" height="80" as="geometry" />
        </mxCell>
        <mxCell id="mwm1boXhuY1Ww02Y-CO6-5" value="" style="image;points=[];aspect=fixed;html=1;align=center;shadow=0;dashed=0;image=img/lib/allied_telesis/wireless/Access_Point_Indoor.svg;" vertex="1" parent="1">
          <mxGeometry x="460" y="512" width="36.6" height="54.6" as="geometry" />
        </mxCell>
        <mxCell id="mwm1boXhuY1Ww02Y-CO6-6" value="" style="image;points=[];aspect=fixed;html=1;align=center;shadow=0;dashed=0;image=img/lib/allied_telesis/wireless/Access_Point_Indoor.svg;" vertex="1" parent="1">
          <mxGeometry x="460" y="587.4" width="36.6" height="54.6" as="geometry" />
        </mxCell>
        <mxCell id="mwm1boXhuY1Ww02Y-CO6-7" value="" style="image;points=[];aspect=fixed;html=1;align=center;shadow=0;dashed=0;image=img/lib/allied_telesis/wireless/Access_Point_Indoor.svg;" vertex="1" parent="1">
          <mxGeometry x="460" y="662" width="36.6" height="54.6" as="geometry" />
        </mxCell>
        <mxCell id="mwm1boXhuY1Ww02Y-CO6-12" value="" style="image;html=1;image=img/lib/clip_art/networking/Modem_128x128.png" vertex="1" parent="1">
          <mxGeometry x="750" y="180" width="80" height="80" as="geometry" />
        </mxCell>
        <mxCell id="mwm1boXhuY1Ww02Y-CO6-70" style="edgeStyle=none;rounded=0;orthogonalLoop=1;jettySize=auto;html=1;exitX=0.5;exitY=1;exitDx=0;exitDy=0;entryX=0.5;entryY=0;entryDx=0;entryDy=0;endArrow=none;endFill=0;" edge="1" parent="1" source="mwm1boXhuY1Ww02Y-CO6-14" target="mwm1boXhuY1Ww02Y-CO6-12">
          <mxGeometry relative="1" as="geometry" />
        </mxCell>
        <mxCell id="mwm1boXhuY1Ww02Y-CO6-14" value="" style="image;aspect=fixed;perimeter=ellipsePerimeter;html=1;align=center;shadow=0;dashed=0;spacingTop=3;image=img/lib/active_directory/internet_cloud.svg;" vertex="1" parent="1">
          <mxGeometry x="860" y="50" width="79.37" height="50" as="geometry" />
        </mxCell>
        <mxCell id="mwm1boXhuY1Ww02Y-CO6-64" style="edgeStyle=none;rounded=0;orthogonalLoop=1;jettySize=auto;html=1;exitX=0.5;exitY=1;exitDx=0;exitDy=0;entryX=0;entryY=0.5;entryDx=0;entryDy=0;endArrow=none;endFill=0;" edge="1" parent="1" source="mwm1boXhuY1Ww02Y-CO6-15" target="mwm1boXhuY1Ww02Y-CO6-19">
          <mxGeometry relative="1" as="geometry" />
        </mxCell>
        <mxCell id="mwm1boXhuY1Ww02Y-CO6-66" style="edgeStyle=none;rounded=0;orthogonalLoop=1;jettySize=auto;html=1;exitX=0.5;exitY=0;exitDx=0;exitDy=0;endArrow=none;endFill=0;entryX=0.5;entryY=1;entryDx=0;entryDy=0;" edge="1" parent="1" source="mwm1boXhuY1Ww02Y-CO6-15" target="mwm1boXhuY1Ww02Y-CO6-12">
          <mxGeometry relative="1" as="geometry">
            <mxPoint x="890" y="260" as="targetPoint" />
          </mxGeometry>
        </mxCell>
        <mxCell id="mwm1boXhuY1Ww02Y-CO6-15" value="" style="image;html=1;image=img/lib/clip_art/networking/Router_128x128.png" vertex="1" parent="1">
          <mxGeometry x="960" y="380" width="80" height="80" as="geometry" />
        </mxCell>
        <mxCell id="mwm1boXhuY1Ww02Y-CO6-16" value="" style="image;points=[];aspect=fixed;html=1;align=center;shadow=0;dashed=0;image=img/lib/allied_telesis/wireless/Access_Point_Indoor.svg;" vertex="1" parent="1">
          <mxGeometry x="1310" y="512.4" width="36.6" height="54.6" as="geometry" />
        </mxCell>
        <mxCell id="mwm1boXhuY1Ww02Y-CO6-17" value="" style="image;points=[];aspect=fixed;html=1;align=center;shadow=0;dashed=0;image=img/lib/allied_telesis/wireless/Access_Point_Indoor.svg;" vertex="1" parent="1">
          <mxGeometry x="1310" y="587.8" width="36.6" height="54.6" as="geometry" />
        </mxCell>
        <mxCell id="mwm1boXhuY1Ww02Y-CO6-18" value="" style="image;points=[];aspect=fixed;html=1;align=center;shadow=0;dashed=0;image=img/lib/allied_telesis/wireless/Access_Point_Indoor.svg;" vertex="1" parent="1">
          <mxGeometry x="1310" y="662.4" width="36.6" height="54.6" as="geometry" />
        </mxCell>
        <mxCell id="mwm1boXhuY1Ww02Y-CO6-43" style="edgeStyle=none;rounded=0;orthogonalLoop=1;jettySize=auto;html=1;exitX=1;exitY=0.5;exitDx=0;exitDy=0;entryX=-0.043;entryY=0.399;entryDx=0;entryDy=0;entryPerimeter=0;endArrow=none;endFill=0;" edge="1" parent="1" source="mwm1boXhuY1Ww02Y-CO6-19" target="mwm1boXhuY1Ww02Y-CO6-17">
          <mxGeometry relative="1" as="geometry" />
        </mxCell>
        <mxCell id="mwm1boXhuY1Ww02Y-CO6-44" style="edgeStyle=none;rounded=0;orthogonalLoop=1;jettySize=auto;html=1;exitX=1;exitY=0.5;exitDx=0;exitDy=0;entryX=-0.108;entryY=0.506;entryDx=0;entryDy=0;entryPerimeter=0;endArrow=none;endFill=0;" edge="1" parent="1" source="mwm1boXhuY1Ww02Y-CO6-19" target="mwm1boXhuY1Ww02Y-CO6-16">
          <mxGeometry relative="1" as="geometry" />
        </mxCell>
        <mxCell id="mwm1boXhuY1Ww02Y-CO6-45" style="edgeStyle=none;rounded=0;orthogonalLoop=1;jettySize=auto;html=1;exitX=1;exitY=0.5;exitDx=0;exitDy=0;entryX=0;entryY=0.505;entryDx=0;entryDy=0;entryPerimeter=0;endArrow=none;endFill=0;" edge="1" parent="1" source="mwm1boXhuY1Ww02Y-CO6-19" target="mwm1boXhuY1Ww02Y-CO6-18">
          <mxGeometry relative="1" as="geometry" />
        </mxCell>
        <mxCell id="mwm1boXhuY1Ww02Y-CO6-19" value="" style="image;html=1;image=img/lib/clip_art/networking/Switch_128x128.png" vertex="1" parent="1">
          <mxGeometry x="1090" y="566.6" width="80" height="80" as="geometry" />
        </mxCell>
        <mxCell id="mwm1boXhuY1Ww02Y-CO6-20" value="" style="image;points=[];aspect=fixed;html=1;align=center;shadow=0;dashed=0;image=img/lib/allied_telesis/computer_and_terminals/Personal_Computer.svg;" vertex="1" parent="1">
          <mxGeometry x="637.2" y="800" width="45.6" height="61.800000000000004" as="geometry" />
        </mxCell>
        <mxCell id="mwm1boXhuY1Ww02Y-CO6-21" value="" style="image;points=[];aspect=fixed;html=1;align=center;shadow=0;dashed=0;image=img/lib/allied_telesis/computer_and_terminals/Personal_Computer.svg;" vertex="1" parent="1">
          <mxGeometry x="730" y="800" width="45.6" height="61.800000000000004" as="geometry" />
        </mxCell>
        <mxCell id="mwm1boXhuY1Ww02Y-CO6-22" value="" style="image;points=[];aspect=fixed;html=1;align=center;shadow=0;dashed=0;image=img/lib/allied_telesis/computer_and_terminals/Personal_Computer.svg;" vertex="1" parent="1">
          <mxGeometry x="540" y="800" width="45.6" height="61.800000000000004" as="geometry" />
        </mxCell>
        <mxCell id="mwm1boXhuY1Ww02Y-CO6-23" value="" style="image;aspect=fixed;perimeter=ellipsePerimeter;html=1;align=center;shadow=0;dashed=0;spacingTop=3;image=img/lib/active_directory/cell_phone.svg;" vertex="1" parent="1">
          <mxGeometry x="340" y="512" width="21" height="50" as="geometry" />
        </mxCell>
        <mxCell id="mwm1boXhuY1Ww02Y-CO6-24" value="" style="image;aspect=fixed;perimeter=ellipsePerimeter;html=1;align=center;shadow=0;dashed=0;spacingTop=3;image=img/lib/active_directory/cell_phone.svg;" vertex="1" parent="1">
          <mxGeometry x="340" y="596.6" width="21" height="50" as="geometry" />
        </mxCell>
        <mxCell id="mwm1boXhuY1Ww02Y-CO6-25" value="" style="image;aspect=fixed;perimeter=ellipsePerimeter;html=1;align=center;shadow=0;dashed=0;spacingTop=3;image=img/lib/active_directory/cell_phone.svg;" vertex="1" parent="1">
          <mxGeometry x="340" y="680" width="21" height="50" as="geometry" />
        </mxCell>
        <mxCell id="mwm1boXhuY1Ww02Y-CO6-26" value="" style="image;aspect=fixed;perimeter=ellipsePerimeter;html=1;align=center;shadow=0;dashed=0;spacingTop=3;image=img/lib/active_directory/cell_phone.svg;" vertex="1" parent="1">
          <mxGeometry x="1490" y="512" width="21" height="50" as="geometry" />
        </mxCell>
        <mxCell id="mwm1boXhuY1Ww02Y-CO6-27" value="" style="image;aspect=fixed;perimeter=ellipsePerimeter;html=1;align=center;shadow=0;dashed=0;spacingTop=3;image=img/lib/active_directory/cell_phone.svg;" vertex="1" parent="1">
          <mxGeometry x="1490" y="596.6" width="21" height="50" as="geometry" />
        </mxCell>
        <mxCell id="mwm1boXhuY1Ww02Y-CO6-28" value="" style="image;aspect=fixed;perimeter=ellipsePerimeter;html=1;align=center;shadow=0;dashed=0;spacingTop=3;image=img/lib/active_directory/cell_phone.svg;" vertex="1" parent="1">
          <mxGeometry x="1490" y="680" width="21" height="50" as="geometry" />
        </mxCell>
        <mxCell id="mwm1boXhuY1Ww02Y-CO6-29" value="" style="image;points=[];aspect=fixed;html=1;align=center;shadow=0;dashed=0;image=img/lib/allied_telesis/computer_and_terminals/Personal_Computer.svg;" vertex="1" parent="1">
          <mxGeometry x="1109.4" y="810" width="45.6" height="61.800000000000004" as="geometry" />
        </mxCell>
        <mxCell id="mwm1boXhuY1Ww02Y-CO6-30" value="" style="image;points=[];aspect=fixed;html=1;align=center;shadow=0;dashed=0;image=img/lib/allied_telesis/computer_and_terminals/Personal_Computer.svg;" vertex="1" parent="1">
          <mxGeometry x="1202.2" y="810" width="45.6" height="61.800000000000004" as="geometry" />
        </mxCell>
        <mxCell id="mwm1boXhuY1Ww02Y-CO6-31" value="" style="image;points=[];aspect=fixed;html=1;align=center;shadow=0;dashed=0;image=img/lib/allied_telesis/computer_and_terminals/Personal_Computer.svg;" vertex="1" parent="1">
          <mxGeometry x="1012.2" y="810" width="45.6" height="61.800000000000004" as="geometry" />
        </mxCell>
        <mxCell id="mwm1boXhuY1Ww02Y-CO6-49" style="edgeStyle=none;rounded=0;orthogonalLoop=1;jettySize=auto;html=1;entryX=0.474;entryY=-0.052;entryDx=0;entryDy=0;entryPerimeter=0;exitX=0.5;exitY=1;exitDx=0;exitDy=0;endArrow=none;endFill=0;" edge="1" parent="1">
          <mxGeometry relative="1" as="geometry">
            <mxPoint x="1129" y="646.6" as="sourcePoint" />
            <mxPoint x="1221" y="788.6" as="targetPoint" />
          </mxGeometry>
        </mxCell>
        <mxCell id="mwm1boXhuY1Ww02Y-CO6-50" style="edgeStyle=none;rounded=0;orthogonalLoop=1;jettySize=auto;html=1;entryX=0.465;entryY=-0.052;entryDx=0;entryDy=0;entryPerimeter=0;endArrow=none;endFill=0;" edge="1" parent="1">
          <mxGeometry relative="1" as="geometry">
            <mxPoint x="1129" y="646.6" as="sourcePoint" />
            <mxPoint x="1127" y="788.6" as="targetPoint" />
          </mxGeometry>
        </mxCell>
        <mxCell id="mwm1boXhuY1Ww02Y-CO6-51" style="edgeStyle=none;rounded=0;orthogonalLoop=1;jettySize=auto;html=1;exitX=0.5;exitY=1;exitDx=0;exitDy=0;entryX=0.457;entryY=-0.022;entryDx=0;entryDy=0;entryPerimeter=0;endArrow=none;endFill=0;" edge="1" parent="1">
          <mxGeometry relative="1" as="geometry">
            <mxPoint x="1129" y="646.6" as="sourcePoint" />
            <mxPoint x="1030" y="790.6" as="targetPoint" />
          </mxGeometry>
        </mxCell>
        <mxCell id="mwm1boXhuY1Ww02Y-CO6-52" value="" style="html=1;verticalLabelPosition=bottom;align=center;labelBackgroundColor=#ffffff;verticalAlign=top;strokeWidth=2;strokeColor=#0080F0;shadow=0;dashed=0;shape=mxgraph.ios7.icons.wifi;pointerEvents=1" vertex="1" parent="1">
          <mxGeometry x="414" y="526.5" width="29.7" height="21" as="geometry" />
        </mxCell>
        <mxCell id="mwm1boXhuY1Ww02Y-CO6-53" value="" style="html=1;verticalLabelPosition=bottom;align=center;labelBackgroundColor=#ffffff;verticalAlign=top;strokeWidth=2;strokeColor=#0080F0;shadow=0;dashed=0;shape=mxgraph.ios7.icons.wifi;pointerEvents=1" vertex="1" parent="1">
          <mxGeometry x="414" y="604.2" width="29.7" height="21" as="geometry" />
        </mxCell>
        <mxCell id="mwm1boXhuY1Ww02Y-CO6-54" value="" style="html=1;verticalLabelPosition=bottom;align=center;labelBackgroundColor=#ffffff;verticalAlign=top;strokeWidth=2;strokeColor=#0080F0;shadow=0;dashed=0;shape=mxgraph.ios7.icons.wifi;pointerEvents=1" vertex="1" parent="1">
          <mxGeometry x="414" y="680" width="29.7" height="21" as="geometry" />
        </mxCell>
        <mxCell id="mwm1boXhuY1Ww02Y-CO6-56" value="" style="html=1;verticalLabelPosition=bottom;align=center;labelBackgroundColor=#ffffff;verticalAlign=top;strokeWidth=2;strokeColor=#0080F0;shadow=0;dashed=0;shape=mxgraph.ios7.icons.wifi;pointerEvents=1" vertex="1" parent="1">
          <mxGeometry x="1380" y="680" width="29.7" height="21" as="geometry" />
        </mxCell>
        <mxCell id="mwm1boXhuY1Ww02Y-CO6-57" value="" style="html=1;verticalLabelPosition=bottom;align=center;labelBackgroundColor=#ffffff;verticalAlign=top;strokeWidth=2;strokeColor=#0080F0;shadow=0;dashed=0;shape=mxgraph.ios7.icons.wifi;pointerEvents=1" vertex="1" parent="1">
          <mxGeometry x="1380" y="604.2" width="29.7" height="21" as="geometry" />
        </mxCell>
        <mxCell id="mwm1boXhuY1Ww02Y-CO6-58" value="" style="html=1;verticalLabelPosition=bottom;align=center;labelBackgroundColor=#ffffff;verticalAlign=top;strokeWidth=2;strokeColor=#0080F0;shadow=0;dashed=0;shape=mxgraph.ios7.icons.wifi;pointerEvents=1" vertex="1" parent="1">
          <mxGeometry x="1380" y="526.5" width="29.7" height="21" as="geometry" />
        </mxCell>
        <mxCell id="mwm1boXhuY1Ww02Y-CO6-71" style="edgeStyle=none;rounded=0;orthogonalLoop=1;jettySize=auto;html=1;exitX=0.5;exitY=0;exitDx=0;exitDy=0;entryX=0.5;entryY=1;entryDx=0;entryDy=0;endArrow=none;endFill=0;" edge="1" parent="1" source="mwm1boXhuY1Ww02Y-CO6-67" target="mwm1boXhuY1Ww02Y-CO6-14">
          <mxGeometry relative="1" as="geometry" />
        </mxCell>
        <mxCell id="mwm1boXhuY1Ww02Y-CO6-67" value="" style="image;html=1;image=img/lib/clip_art/networking/Modem_128x128.png" vertex="1" parent="1">
          <mxGeometry x="960" y="180" width="80" height="80" as="geometry" />
        </mxCell>
        <mxCell id="mwm1boXhuY1Ww02Y-CO6-68" style="edgeStyle=none;rounded=0;orthogonalLoop=1;jettySize=auto;html=1;exitX=0.5;exitY=0;exitDx=0;exitDy=0;endArrow=none;endFill=0;entryX=0.5;entryY=1;entryDx=0;entryDy=0;" edge="1" target="mwm1boXhuY1Ww02Y-CO6-67" parent="1" source="mwm1boXhuY1Ww02Y-CO6-15">
          <mxGeometry relative="1" as="geometry">
            <mxPoint x="1100" y="260" as="targetPoint" />
            <mxPoint x="1210" y="380" as="sourcePoint" />
          </mxGeometry>
        </mxCell>
        <mxCell id="mwm1boXhuY1Ww02Y-CO6-69" style="edgeStyle=none;rounded=0;orthogonalLoop=1;jettySize=auto;html=1;exitX=0.5;exitY=0;exitDx=0;exitDy=0;entryX=0.5;entryY=1;entryDx=0;entryDy=0;endArrow=none;endFill=0;" edge="1" target="mwm1boXhuY1Ww02Y-CO6-67" parent="1" source="mwm1boXhuY1Ww02Y-CO6-3">
          <mxGeometry relative="1" as="geometry">
            <mxPoint x="1000" y="380" as="sourcePoint" />
          </mxGeometry>
        </mxCell>
      </root>
    </mxGraphModel>
  </diagram>
</mxfile>
